<svg width="26" height="26" viewBox="0 0 26 26" fill="none" xmlns="http://www.w3.org/2000/svg">
<path fill-rule="evenodd" clip-rule="evenodd" d="M10.7722 3.521H15.2278C17.2187 3.52098 18.7956 3.52097 20.0298 3.68689C21.2999 3.85766 22.3279 4.21745 23.1387 5.02818C23.9494 5.8389 24.3092 6.86693 24.48 8.13705C24.6459 9.37121 24.6459 10.9481 24.6459 12.9391V13.0613C24.6459 15.0522 24.6459 16.6291 24.48 17.8633C24.3092 19.1334 23.9494 20.1614 23.1387 20.9722C22.3279 21.7829 21.2999 22.1427 20.0298 22.3134C18.7956 22.4794 17.2187 22.4793 15.2278 22.4793H10.7722C8.78133 22.4793 7.2044 22.4794 5.97025 22.3134C4.70012 22.1427 3.67209 21.7829 2.86137 20.9722C2.05064 20.1614 1.69085 19.1334 1.52008 17.8633C1.35416 16.6291 1.35417 15.0522 1.35419 13.0613V12.939C1.35417 10.9481 1.35416 9.3712 1.52008 8.13706C1.69085 6.86693 2.05064 5.8389 2.86137 5.02818C3.67209 4.21745 4.70012 3.85766 5.97025 3.68689C7.20439 3.52097 8.78133 3.52098 10.7722 3.521ZM6.18677 5.2974C5.09684 5.44394 4.46889 5.71875 4.01042 6.17723C3.55194 6.6357 3.27713 7.26365 3.13059 8.35358C2.98091 9.46689 2.97919 10.9344 2.97919 13.0002C2.97919 15.0659 2.98091 16.5334 3.13059 17.6467C3.27713 18.7367 3.55194 19.3646 4.01042 19.8231C4.46889 20.2816 5.09684 20.5564 6.18677 20.7029C7.30008 20.8526 8.76763 20.8543 10.8334 20.8543H15.1667C17.2324 20.8543 18.7 20.8526 19.8133 20.7029C20.9032 20.5564 21.5311 20.2816 21.9896 19.8231C22.4481 19.3646 22.7229 18.7367 22.8694 17.6467C23.0191 16.5334 23.0209 15.0659 23.0209 13.0002C23.0209 10.9344 23.0191 9.46689 22.8694 8.35358C22.7229 7.26365 22.4481 6.6357 21.9896 6.17723C21.5311 5.71875 20.9032 5.44394 19.8133 5.2974C18.7 5.14772 17.2324 5.146 15.1667 5.146H10.8334C8.76763 5.146 7.30008 5.14772 6.18677 5.2974ZM5.87584 8.14668C6.16311 7.80196 6.67545 7.75538 7.02017 8.04265L9.35897 9.99165C10.3697 10.8339 11.0714 11.4168 11.6638 11.7978C12.2373 12.1666 12.6262 12.2904 13 12.2904C13.3738 12.2904 13.7627 12.1666 14.3362 11.7978C14.9286 11.4168 15.6304 10.8339 16.6411 9.99165L18.9799 8.04265C19.3246 7.75538 19.8369 7.80196 20.1242 8.14668C20.4115 8.49141 20.3649 9.00374 20.0202 9.29101L17.6406 11.274C16.6804 12.0742 15.9021 12.7227 15.2152 13.1645C14.4997 13.6247 13.8029 13.9154 13 13.9154C12.1972 13.9154 11.5003 13.6247 10.7848 13.1645C10.0979 12.7227 9.31963 12.0742 8.35941 11.274L5.97987 9.29101C5.63515 9.00374 5.58857 8.49141 5.87584 8.14668Z" fill="white"/>
</svg>
