<svg width="236" height="73" viewBox="0 0 236 73" fill="none" xmlns="http://www.w3.org/2000/svg">
<g clip-path="url(#clip0_93_1701)">
<path d="M72.6796 1.35578C72.2241 0.964692 71.4635 0.744936 70.3867 0.711414C69.5886 0.670442 68.5306 0.607123 67.2015 0.528904C65.8687 0.450686 64.4004 0.372468 62.7965 0.29425C61.1888 0.216031 59.4795 0.148987 57.6761 0.0893923C55.8651 0.0297974 54.0918 0 52.3486 0C50.4774 0 48.2372 0.0968417 45.6205 0.29425C42.9963 0.491658 40.2629 0.826879 37.4015 1.29619C34.5401 1.7655 31.6975 2.41359 28.8549 3.24047C26.0199 4.06363 23.4747 5.10654 21.2346 6.36175C18.9869 7.62069 17.1721 9.12174 15.7866 10.8649C14.3973 12.6118 13.697 14.6492 13.697 16.9659C13.697 18.4185 13.9756 19.6812 14.5329 20.7651C15.0863 21.8452 15.813 22.7392 16.7053 23.4469C17.6013 24.1508 18.6292 24.6797 19.8039 25.0336C20.971 25.3911 22.1532 25.5662 23.3467 25.5662C25.41 25.5662 27.3828 25.2124 29.2691 24.5047C31.1554 23.8007 32.812 22.8546 34.2427 21.6814C35.6734 20.5006 36.8104 19.1374 37.6651 17.5842C38.5197 16.031 38.9452 14.4108 38.9452 12.7235C38.9452 12.176 38.9339 11.6359 38.915 11.1033C38.8962 10.5744 38.8247 10.0343 38.708 9.48303L38.0491 9.54263C38.1696 10.4105 38.226 11.2746 38.226 12.1387C38.226 13.9452 37.7818 15.5356 36.8895 16.91C35.9934 18.2845 34.8413 19.413 33.437 20.2958C32.0251 21.1785 30.4777 21.849 28.7909 22.2997C27.1042 22.7503 25.4664 22.9738 23.8776 22.9738C22.8083 22.9738 21.7165 22.836 20.6058 22.5641C19.4914 22.2885 18.4786 21.8899 17.5674 21.3536C16.6526 20.8247 15.8996 20.1505 15.3009 19.3236C14.706 18.5005 14.4086 17.5544 14.4086 16.5003C14.4086 14.8913 14.8642 13.4647 15.7791 12.2281C16.6902 10.9953 17.9515 9.91137 19.5591 8.98765C21.1668 8.06766 23.0342 7.27802 25.1539 6.63365C27.2774 5.98184 29.5477 5.47528 31.9724 5.10281C34.3933 4.73034 36.897 4.45099 39.4723 4.27593C42.0513 4.1046 44.5738 4.01148 47.0324 4.01148C47.9887 4.01148 49.0166 4.02265 50.131 4.04128C51.2454 4.06735 52.3222 4.09342 53.3764 4.13067C54.4306 4.16792 55.402 4.22379 56.2943 4.27593C57.1904 4.33553 57.9321 4.4063 58.527 4.48451V4.6037C55.9894 5.34864 53.8019 6.22394 51.9759 7.22215C50.1498 8.22409 48.5121 9.41599 47.0663 10.7867C45.613 12.1611 44.2651 13.7627 43.0151 15.5878C41.7614 17.4129 40.4474 19.5248 39.0581 21.9235C37.827 24.0428 36.5506 26.259 35.2178 28.5757C33.885 30.8962 32.4166 33.0044 30.809 34.9114C29.2013 36.8147 27.4054 38.3865 25.4213 39.6269C24.5064 40.2005 23.5312 40.6363 22.4883 40.938L22.3038 41.9175C23.6065 41.7313 24.8414 41.452 26.0199 41.072C28.3203 40.3234 30.4551 39.2544 32.4166 37.8614C34.382 36.4646 36.208 34.7773 37.8947 32.7958C39.5815 30.8143 41.1816 28.5646 42.6913 26.0504C44.1597 23.6182 45.5829 21.1413 46.9533 18.6308C48.32 16.113 49.7281 13.8372 51.1777 11.7961C52.6272 9.75494 54.152 8.08628 55.7635 6.78637C57.3711 5.49018 59.1444 4.84208 61.0909 4.84208C62.1188 4.84208 63.2633 4.88305 64.5171 4.96127C65.7633 5.03949 67.1451 5.08046 68.6548 5.08046C70.2813 5.08046 71.4748 4.86443 72.2278 4.43609C72.9808 4.00031 73.3611 3.4714 73.3611 2.84566C73.3611 2.25343 73.1277 1.7655 72.6721 1.37068L72.6796 1.35578Z" fill="white"/>
<path d="M81.2827 25.7451C80.2097 27.1195 78.9597 28.602 77.5328 30.1924C76.1096 31.7717 74.63 33.2876 73.0938 34.7328C73.0826 34.7402 73.075 34.7514 73.0675 34.7589C71.0419 36.6436 69.0276 38.0776 67.0247 39.0609C65.0179 40.0442 63.1843 40.5321 61.5164 40.5321C59.8486 40.5321 58.4781 40.0032 57.5255 38.9417C56.573 37.8801 56.0948 36.5057 56.0948 34.8185C56.0948 34.1927 56.1927 33.485 56.3923 32.6991C57.1076 32.5427 58.0188 32.3453 59.1332 32.1106C60.2439 31.876 61.4336 31.578 62.7062 31.2279C63.975 30.874 65.2551 30.4606 66.5465 29.9913C67.8379 29.522 68.9975 28.9707 70.0329 28.3412C71.0645 27.7118 71.9079 27.0078 72.563 26.2182C73.2181 25.436 73.5456 24.5681 73.5456 23.6258C73.5456 22.4488 73.0713 21.5363 72.1149 20.8882C71.1624 20.2401 69.8334 19.916 68.124 19.916C66.2604 19.916 64.2837 20.3704 62.1979 21.2718C60.1121 22.1769 58.1995 23.3539 56.4525 24.8065C54.7056 26.2591 53.256 27.9092 52.1039 29.7529C50.9518 31.6003 50.3758 33.4664 50.3758 35.3511C50.3758 37.4742 51.0309 39.2024 52.3411 40.5358C53.6514 41.8693 55.4397 42.5397 57.7025 42.5397C59.9653 42.5397 62.2996 42.0779 64.8184 41.1541C67.0171 40.3496 69.2987 38.9678 71.6669 37.0086C72.0133 36.7218 72.3597 36.4238 72.7098 36.1146C74.6526 34.3491 76.3318 32.6581 77.7399 31.0491C79.148 29.44 80.4695 27.8123 81.7007 26.1623L81.2827 25.7489V25.7451ZM58.0301 28.6616C58.8056 27.3467 59.698 26.0915 60.7107 24.8922C61.7235 23.6966 62.8041 22.6835 63.9562 21.8603C65.1083 21.0371 66.1813 20.6237 67.1715 20.6237C67.6496 20.6237 68.0337 20.7429 68.3349 20.9775C68.6323 21.2122 68.7791 21.607 68.7791 22.1545C68.7791 23.0969 68.4403 24.0877 67.7664 25.1306C67.0924 26.1698 66.1888 27.1531 65.0593 28.0768C63.9261 29.0005 62.6271 29.8237 61.1588 30.55C59.6904 31.2763 58.143 31.794 56.5128 32.1106C56.75 31.1273 57.2582 29.9801 58.0301 28.6616Z" fill="white"/>
<path d="M123.5 26.3336C122.427 27.708 121.169 29.2314 119.72 30.9001C118.993 31.7381 118.259 32.5539 117.517 33.3435C116.779 34.1331 116.037 34.9004 115.284 35.6453C111.591 39.2992 108.933 41.1243 107.306 41.1243C106.87 41.1243 106.553 40.9791 106.354 40.6811C106.154 40.3869 106.056 40.0256 106.056 39.5935C106.056 38.532 106.493 37.355 107.367 36.0588C108.24 34.7626 109.211 33.4292 110.285 32.051C111.358 30.6766 112.329 29.291 113.202 27.898C114.076 26.505 114.513 25.138 114.513 23.8046C114.513 22.784 114.125 21.8789 113.349 21.093C112.577 20.3071 111.553 19.916 110.285 19.916C109.016 19.916 107.653 20.2997 106.324 21.0669C104.995 21.8342 103.722 22.7654 102.514 23.8642C101.305 24.9667 100.179 26.1325 99.1514 27.3691C98.116 28.6057 97.2237 29.697 96.4707 30.6394L96.3502 30.5202C96.6703 30.0509 97.0166 29.5108 97.3931 28.8999C97.7696 28.2891 98.1085 27.682 98.4059 27.0749C98.7034 26.464 98.9518 25.8494 99.1514 25.22C99.3472 24.5905 99.4488 24.002 99.4488 23.4507C99.4488 22.2737 99.061 21.3873 98.2854 20.7988C97.5098 20.2103 96.5686 19.916 95.4579 19.916C93.8691 19.916 92.3706 20.3295 90.9587 21.1526C89.5506 21.9795 88.2291 22.9777 86.9979 24.1584C85.7668 25.3354 84.626 26.572 83.5756 27.8682C82.5251 29.1644 81.5801 30.2855 80.748 31.2279L80.6276 31.1087L88.5454 20.3891L81.5763 20.7429C79.5131 24.3186 77.4085 27.8235 75.2624 31.2577C74.5395 32.416 73.8167 33.5781 73.0862 34.7365C72.6119 35.4926 72.1375 36.2525 71.6593 37.0086C70.703 38.5357 69.7392 40.0628 68.7715 41.5937L74.788 41.359C75.2624 40.5321 75.9175 39.4743 76.7534 38.1781C77.5854 36.8819 78.538 35.4889 79.611 33.9953C80.684 32.5054 81.8248 31.0118 83.0334 29.5182C84.242 28.0246 85.4468 26.6689 86.6365 25.4509C87.8262 24.2329 88.967 23.2422 90.0589 22.4786C91.1507 21.7113 92.1108 21.3277 92.9467 21.3277C93.5415 21.3277 93.9783 21.5251 94.2531 21.9162C94.5317 22.311 94.671 22.743 94.671 23.2124C94.671 23.92 94.3623 24.881 93.7486 26.099C93.1311 27.317 92.3179 28.7212 91.3051 30.3116C90.2923 31.902 89.1402 33.6489 87.8526 35.5559C86.5612 37.463 85.2435 39.4743 83.8918 41.5937L88.8127 41.4111L90.202 41.359C90.281 41.2249 90.3639 41.0796 90.4505 40.9307C90.8947 40.1745 91.4557 39.2583 92.1372 38.1744C92.9504 36.8782 93.8841 35.4852 94.9346 33.9916C95.985 32.5017 97.0957 31.0081 98.2704 29.5145C99.4413 28.0209 100.624 26.6651 101.813 25.4472C103.003 24.2292 104.144 23.2384 105.236 22.4749C106.327 21.7076 107.291 21.3239 108.123 21.3239C108.56 21.3239 108.937 21.4692 109.253 21.7635C109.573 22.0577 109.731 22.4823 109.731 23.0298C109.731 23.7748 109.294 24.7469 108.421 25.9463C107.547 27.1456 106.576 28.4306 105.503 29.805C104.43 31.1794 103.459 32.5948 102.585 34.0437C101.712 35.5001 101.275 36.8521 101.275 38.1111C101.275 39.2881 101.663 40.2602 102.438 41.0275C103.214 41.7948 104.291 42.1784 105.684 42.1784C106.399 42.1784 107.103 42.0704 107.796 41.8544C108.489 41.6383 109.227 41.2957 109.998 40.8226C110.774 40.3533 111.617 39.735 112.528 38.9678C113.443 38.2005 114.456 37.2693 115.567 36.1705C115.928 35.8129 116.286 35.4517 116.64 35.0792C117.11 34.5913 117.577 34.0921 118.037 33.5781C118.85 32.673 119.614 31.8015 120.33 30.956C121.045 30.1105 121.711 29.3171 122.325 28.5684C122.939 27.8235 123.485 27.1568 123.963 26.5646L123.485 26.3299L123.5 26.3336Z" fill="white"/>
<path d="M138.804 25.9207C138.447 26.3118 137.98 26.8445 137.408 27.5112C136.832 28.1816 136.177 28.9266 135.442 29.7497C134.708 30.5766 133.921 31.4295 133.089 32.3123C132.848 32.5693 132.604 32.8263 132.359 33.0833C131.76 33.7128 131.15 34.3497 130.529 34.9941C128.345 37.1954 126.531 38.7448 125.081 39.6462C123.632 40.5513 122.51 41.002 121.715 41.002C121.357 41.002 121.09 40.8567 120.913 40.5587C120.736 40.2645 120.646 39.8808 120.646 39.4115C120.646 38.823 120.857 38.0669 121.271 37.1432C121.689 36.2195 122.321 35.0313 123.176 33.5787C124.027 32.1261 125.13 30.368 126.482 28.3045C127.829 26.2448 129.437 23.7604 131.305 20.8515L125.171 21.1457C123.383 23.8982 121.896 26.2038 120.706 28.0699C119.516 29.936 118.56 31.4966 117.848 32.7518C117.732 32.9529 117.626 33.1466 117.521 33.3366C117.175 33.9735 116.885 34.5546 116.659 35.076C116.531 35.3703 116.418 35.6459 116.327 35.9029C116.03 36.7447 115.883 37.5641 115.883 38.3463C115.883 39.486 116.241 40.4098 116.956 41.1174C117.671 41.8251 118.684 42.179 119.994 42.179C121.384 42.179 122.901 41.7246 124.55 40.8232C126.195 39.9218 128.172 38.3314 130.476 36.0519C130.781 35.7502 131.086 35.4448 131.395 35.1356C131.896 34.6328 132.404 34.1113 132.92 33.5787C133.756 32.7146 134.569 31.843 135.363 30.9565C136.158 30.07 136.903 29.2283 137.596 28.4237C138.289 27.6192 138.876 26.9041 139.35 26.2746L138.816 25.9207H138.804ZM136.753 8.60099C136.177 8.04973 135.51 7.77783 134.757 7.77783C133.842 7.77783 133.04 8.08326 132.347 8.69038C131.655 9.30123 131.305 10.0536 131.305 10.9587C131.305 11.8638 131.621 12.5417 132.257 12.9924C132.893 13.4431 133.646 13.6703 134.52 13.6703C135.311 13.6703 136.026 13.3462 136.662 12.6981C137.295 12.05 137.615 11.3312 137.615 10.5453C137.615 9.80033 137.329 9.15224 136.753 8.60099Z" fill="white"/>
<path d="M154.644 25.9196C153.334 27.6479 151.926 29.3575 150.416 31.0448C149.738 31.8046 149.087 32.516 148.458 33.1865C147.682 34.0133 146.948 34.7695 146.248 35.4622C144.384 37.2315 142.637 38.617 141.007 39.6153C139.381 40.6172 138.07 41.12 137.08 41.12C136.564 41.12 136.165 40.9636 135.89 40.647C135.612 40.3341 135.472 39.9207 135.472 39.4104C135.472 38.8219 135.642 38.1328 135.981 37.3469C136.316 36.561 136.854 35.5107 137.588 34.1959C138.323 32.881 139.305 31.231 140.536 29.2458C141.768 27.2642 143.277 24.8171 145.062 21.9119H152.743L153.281 20.8503H145.717L150.66 13.1924L144.23 13.427L139.765 20.8503H135.179L134.761 21.9119H139.226C138.036 23.953 136.922 25.7632 135.89 27.3313C134.855 28.9031 133.955 30.3371 133.18 31.6333C132.882 32.1324 132.607 32.6166 132.359 33.0822C131.975 33.8048 131.651 34.4901 131.387 35.1345C131.38 35.1568 131.369 35.1754 131.361 35.1978C130.924 36.2779 130.706 37.3283 130.706 38.3489C130.706 39.7642 131.184 40.755 132.137 41.3249C133.089 41.8948 134.2 42.1816 135.472 42.1816C136.387 42.1816 137.317 42.0065 138.274 41.6527C139.226 41.2988 140.198 40.8183 141.191 40.2112C142.182 39.6004 143.164 38.8964 144.139 38.0881C145.111 37.2836 146.052 36.4307 146.971 35.5256C147.426 35.0749 147.871 34.6205 148.307 34.1661C149.463 32.9593 150.548 31.7413 151.557 30.5159C152.946 28.8286 154.098 27.3946 155.013 26.2139L154.655 25.9196H154.644Z" fill="white"/>
<path d="M183.168 25.8604C182.095 27.1194 181.082 28.0617 180.129 28.6875C179.674 28.9892 179.199 29.2164 178.717 29.3765C178.194 29.5479 177.652 29.6335 177.091 29.6335C175.98 29.6335 175.077 29.2797 174.384 28.572C173.687 27.8643 173.243 26.922 173.043 25.745C172.765 24.1359 172.012 22.7615 170.781 21.6217C169.55 20.4857 167.863 19.9121 165.721 19.9121C163.736 19.9121 161.711 20.333 159.648 21.1785C157.584 22.0203 155.698 23.16 153.989 24.594C152.283 26.028 150.894 27.6967 149.821 29.6C149.17 30.7621 148.714 31.9577 148.462 33.1831C148.394 33.5072 148.338 33.835 148.3 34.1627C148.24 34.632 148.213 35.1014 148.213 35.5781C148.213 37.7384 148.868 39.4369 150.179 40.6735C151.489 41.9101 153.236 42.5321 155.419 42.5321C157.483 42.5321 159.471 42.1484 161.372 41.3812C163.277 40.6139 165.005 39.5747 166.553 38.2599C168.1 36.9451 169.422 35.4105 170.513 33.6636C171.605 31.913 172.392 30.0581 172.867 28.0952C173.42 28.8029 174.037 29.3542 174.711 29.7453C175.385 30.1401 176.18 30.3338 177.095 30.3338C177.467 30.3338 177.833 30.3002 178.186 30.2332C179.079 30.0656 179.915 29.6857 180.698 29.0972C181.79 28.274 182.731 27.3503 183.525 26.3297L183.168 25.8604ZM167.565 26.8028C167.245 28.0207 166.801 29.2946 166.225 30.6317C165.649 31.9689 164.975 33.3023 164.199 34.6395C163.428 35.9729 162.581 37.1723 161.669 38.2338C160.754 39.2953 159.806 40.1595 158.812 40.8225C157.818 41.4929 156.824 41.8244 155.834 41.8244C154.919 41.8244 154.256 41.5488 153.838 41.0012C153.42 40.45 153.213 39.6864 153.213 38.7031C153.213 37.88 153.371 36.8594 153.691 35.6414C154.008 34.4235 154.456 33.1496 155.032 31.8125C155.608 30.479 156.282 29.1419 157.057 27.8084C157.833 26.475 158.676 25.2756 159.591 24.2141C160.502 23.1526 161.455 22.2922 162.449 21.6217C163.439 20.955 164.433 20.6198 165.427 20.6198C166.342 20.6198 167.004 20.8954 167.422 21.4467C167.84 21.9979 168.047 22.7615 168.047 23.7448C168.047 24.5717 167.885 25.5922 167.569 26.8102L167.565 26.8028Z" fill="white"/>
<path d="M211.571 25.6853C210.735 26.7059 209.801 27.719 208.77 28.7209C207.738 29.7229 206.627 30.6429 205.434 31.4884C205.317 31.5703 205.197 31.656 205.076 31.7342C203.996 32.4754 202.874 33.1198 201.71 33.6673C200.419 34.2782 199.101 34.7177 197.749 34.9933L197.629 34.8741C198.819 33.6152 199.831 32.1253 200.667 30.397C201.499 28.6688 201.917 26.84 201.917 24.918C201.917 23.4282 201.481 22.2176 200.607 21.2976C199.734 20.3739 198.582 19.9121 197.151 19.9121C195.72 19.9121 194.323 20.2473 193.073 20.914C191.823 21.5807 190.652 22.415 189.561 23.417C188.469 24.4189 187.456 25.5065 186.522 26.6873C185.588 27.8643 184.704 28.9481 183.872 29.9277L183.751 29.8085L197.505 9.07324L191.074 9.36749C186.955 16.016 182.832 22.6832 178.706 29.3765C178.525 29.6633 178.348 29.9501 178.175 30.2369C177.185 31.8385 176.195 33.4438 175.208 35.0492C172.05 40.178 168.883 45.2883 165.717 50.3762H171.88C174.271 46.3051 176.594 42.1931 179.079 38.2002C180.924 35.2354 182.742 32.5462 184.527 30.1289C186.311 27.7153 187.998 25.7412 189.587 24.2103C191.176 22.6795 192.565 21.9122 193.755 21.9122C194.271 21.9122 194.685 22.0091 195.005 22.2065C195.321 22.4001 195.57 22.6683 195.75 22.9998C195.927 23.3313 196.048 23.7075 196.108 24.1172C196.168 24.5307 196.198 24.9516 196.198 25.3836C196.198 26.4861 196.059 27.5551 195.78 28.5943C195.502 29.6335 195.155 30.6056 194.737 31.5107C194.32 32.4158 193.883 33.2278 193.427 33.9541C192.968 34.6804 192.565 35.2801 192.207 35.7531C191.372 35.8723 190.332 36.0288 189.082 36.2224C187.832 36.4198 186.631 36.6843 185.479 37.0158C184.327 37.351 183.345 37.7831 182.531 38.312C181.718 38.8409 181.311 39.5225 181.311 40.3457C181.311 41.1688 181.62 41.6903 182.234 42.0255C182.851 42.357 183.574 42.5283 184.41 42.5283C185.521 42.5283 186.65 42.3123 187.802 41.8802C188.954 41.4482 190.088 40.8969 191.198 40.2302C192.309 39.5635 193.359 38.8372 194.353 38.0513C195.344 37.2653 196.24 36.5204 197.034 35.8127C198.702 35.5371 200.28 35.0566 201.767 34.3713C202.813 33.8908 203.8 33.3507 204.726 32.7473C205.121 32.494 205.505 32.2296 205.878 31.954C207.128 31.034 208.269 30.0618 209.3 29.0375C210.332 28.017 211.224 27.0336 211.981 26.0913L211.563 25.6779L211.571 25.6853ZM190.491 38.0848C189.975 38.6546 189.417 39.1873 188.823 39.6752C188.228 40.1669 187.622 40.5878 187.004 40.9416C186.387 41.2954 185.803 41.4705 185.25 41.4705C184.135 41.4705 183.582 41.0384 183.582 40.1743C183.582 39.5076 183.909 38.9563 184.564 38.5243C185.22 38.0922 185.995 37.7496 186.887 37.4926C187.78 37.2355 188.695 37.0307 189.628 36.8743C190.562 36.7178 191.285 36.5986 191.805 36.5204C191.447 36.9934 191.01 37.5112 190.494 38.081L190.491 38.0848Z" fill="white"/>
<path d="M235.272 25.7451C234.198 27.1195 232.952 28.602 231.522 30.1924C230.091 31.7828 228.604 33.3062 227.056 34.7589C225.031 36.6436 223.016 38.0776 221.013 39.0609C219.01 40.0442 217.173 40.5321 215.505 40.5321C213.837 40.5321 212.467 40.0032 211.514 38.9417C210.562 37.8801 210.084 36.5057 210.084 34.8185C210.084 34.1927 210.182 33.485 210.381 32.6991C211.096 32.5427 212.011 32.3453 213.122 32.1106C214.233 31.876 215.422 31.578 216.695 31.2279C217.968 30.874 219.244 30.4606 220.535 29.9913C221.827 29.522 222.986 28.9707 224.022 28.3412C225.053 27.7118 225.897 27.0078 226.552 26.2182C227.207 25.436 227.534 24.5681 227.534 23.6258C227.534 22.4488 227.056 21.5363 226.104 20.8882C225.151 20.2401 223.818 19.916 222.113 19.916C220.249 19.916 218.273 20.3704 216.187 21.2718C214.105 22.1769 212.188 23.3539 210.441 24.8065C208.694 26.2591 207.245 27.9092 206.093 29.7529C205.682 30.4122 205.343 31.0752 205.08 31.7381C204.944 32.0771 204.828 32.416 204.734 32.755C204.489 33.6191 204.365 34.4795 204.365 35.3474C204.365 37.4704 205.02 39.1987 206.33 40.5321C207.64 41.8656 209.425 42.536 211.688 42.536C212.836 42.536 214.029 42.4131 215.257 42.1635C216.405 41.9326 217.587 41.5974 218.803 41.1504C219.09 41.0461 219.376 40.9307 219.666 40.8077C221.921 39.8356 224.266 38.2712 226.695 36.1109C228.641 34.3454 230.317 32.6544 231.725 31.0454C233.133 29.4363 234.455 27.8086 235.686 26.1586L235.268 25.7451H235.272ZM214.696 24.8885C215.709 23.6928 216.789 22.6797 217.941 21.8566C219.09 21.0334 220.163 20.62 221.157 20.62C221.635 20.62 222.022 20.7392 222.32 20.9738C222.617 21.2085 222.764 21.6033 222.764 22.1508C222.764 23.0932 222.429 24.0839 221.751 25.1268C221.074 26.166 220.174 27.1493 219.041 28.0731C217.907 28.9968 216.608 29.8199 215.14 30.5463C213.672 31.2726 212.124 31.7903 210.494 32.1069C210.731 31.1236 211.239 29.9764 212.015 28.6578C212.791 27.343 213.683 26.0878 214.696 24.8885Z" fill="white"/>
<path d="M21.1329 48.3276L22.3076 41.9099L22.492 40.9304L23.5199 35.3247" fill="white"/>
<path d="M46.2079 56.2132C45.6921 56.6862 45.0671 57.1556 44.3329 57.6286C43.5988 58.1016 42.7931 58.5337 41.9233 58.9248C41.8443 58.962 41.7614 58.9955 41.6824 59.0328C40.8842 59.3755 40.0597 59.6548 39.2163 59.8671C38.2826 60.1018 37.3413 60.221 36.3888 60.221C35.5944 60.221 34.8301 60.1837 34.0959 60.1018C33.3617 60.0236 32.6577 59.8261 31.9837 59.5133C32.9777 58.1798 33.9679 56.6788 34.9618 55.0064C35.952 53.3378 36.8481 51.6095 37.6425 49.8217C38.4369 48.0375 39.0808 46.2087 39.5777 44.3427C40.0747 42.4766 40.3232 40.6813 40.3232 38.953C40.3232 36.2042 39.7547 33.9433 38.6252 32.1779C37.4919 30.4086 35.7374 29.5259 33.3542 29.5259C32.4016 29.5259 31.4001 29.686 30.3459 29.9989C29.2955 30.3155 28.1321 31.0604 26.8595 32.2374C24.6344 32.4349 22.4244 33.0234 20.2218 34.0067C18.0193 34.9863 15.9222 36.2266 13.938 37.7165C11.9539 39.21 10.109 40.9271 8.39971 42.8714C6.69416 44.8157 5.21451 46.8568 3.96453 48.9985C2.71455 51.1402 1.73941 53.3489 1.04665 55.6247C0.353888 57.9005 0.00750732 60.1204 0.00750732 62.2807C0.00750732 63.6961 0.176933 65.0407 0.512018 66.3145C0.850869 67.5921 1.42692 68.7281 2.24016 69.7301C3.0534 70.732 4.12643 71.5254 5.45547 72.1139C6.78452 72.7024 8.44112 72.9966 10.429 72.9966C12.5713 72.9966 14.6346 72.6241 16.6225 71.8755C18.6066 71.1306 20.4816 70.1472 22.2474 68.933C24.017 67.715 25.6698 66.3294 27.221 64.78C28.7684 63.2268 30.1765 61.6661 31.4491 60.0981C32.9551 60.6493 34.6456 60.9212 36.513 60.9212C37.9739 60.9212 39.4949 60.6195 41.0687 60.0161C41.2456 59.9491 41.4264 59.8783 41.6033 59.8001C43.3691 59.0551 45.0257 57.9936 46.5769 56.6192L46.2192 56.2058L46.2079 56.2132ZM26.2308 63.3124C25.0185 64.8247 23.648 66.2103 22.1194 67.4655C20.5908 68.7244 18.9719 69.7748 17.2663 70.6203C15.557 71.4621 13.8289 71.8867 12.0857 71.8867C10.9336 71.8867 9.97348 71.6334 9.19789 71.1231C8.42606 70.6128 7.8086 69.9349 7.35304 69.0894C6.89747 68.2477 6.56992 67.2718 6.37037 66.173C6.17083 65.0705 6.07293 63.9345 6.07293 62.7537C6.07293 60.91 6.29131 58.9546 6.72805 56.8911C7.16479 54.8314 7.78978 52.7604 8.60302 50.6783C9.41626 48.5962 10.4065 46.5737 11.5811 44.6108C12.7521 42.6479 14.0811 40.8713 15.5721 39.2808C17.0592 37.6904 18.6782 36.3383 20.4251 35.2172C22.1721 34.0961 24.0358 33.3437 26.0199 32.9489L26.1404 33.0643C24.593 34.7144 23.3731 36.6102 22.4771 38.7482C21.5848 40.8899 21.1367 43.0986 21.1367 45.3744C21.1367 46.7898 21.325 48.1716 21.7015 49.5274C22.078 50.8832 22.6164 52.157 23.3091 53.3564C24.0019 54.5557 24.8453 55.6359 25.8392 56.5969C26.8294 57.5615 27.9439 58.3735 29.175 59.044C28.422 60.3774 27.4394 61.804 26.227 63.3162L26.2308 63.3124ZM29.6532 58.3921C28.4634 57.7254 27.477 56.839 26.7052 55.7402C25.9296 54.6377 25.3084 53.4309 24.8302 52.1161C24.352 50.8013 24.017 49.4343 23.8174 48.0189C23.6216 46.6035 23.52 45.2515 23.52 43.9553C23.52 43.0502 23.5878 42.0818 23.7308 41.0389C23.8701 39.9997 24.0885 38.9754 24.3859 37.9735C24.6834 36.9715 25.0486 36.0292 25.4853 35.1464C25.9221 34.2637 26.4379 33.5076 27.0327 32.8781C27.9062 32.8408 28.6291 32.9302 29.2051 33.1463C29.7812 33.3623 30.2481 33.6565 30.6057 34.029C30.9634 34.4015 31.2194 34.8522 31.3813 35.3848C31.5394 35.9137 31.6185 36.4575 31.6185 37.005C31.6185 37.3589 31.5959 37.75 31.5583 38.182C31.5206 38.6141 31.4604 38.9493 31.3813 39.184L32.0364 39.2436C32.1155 38.9307 32.1833 38.6066 32.2435 38.2714C32.3037 37.9362 32.3339 37.5339 32.3339 37.0609C32.3339 36.4724 32.2548 35.8839 32.0967 35.2954C31.9385 34.7069 31.6788 34.1855 31.3211 33.7348C30.9634 33.2841 30.489 32.9228 29.8904 32.6509C29.2955 32.379 28.5613 32.2225 27.6878 32.1853C28.0832 31.8091 28.5387 31.5037 29.0583 31.2765C29.5741 31.0493 30.1916 30.9338 30.9032 30.9338C31.7766 30.9338 32.5108 31.1238 33.1057 31.5074C33.7006 31.8873 34.1787 32.42 34.5364 33.0978C34.8941 33.7757 35.1501 34.5691 35.312 35.4705C35.4701 36.3756 35.5492 37.3365 35.5492 38.3571C35.5492 39.9699 35.4099 41.646 35.1313 43.3929C34.8527 45.1397 34.4573 46.8903 33.9415 48.6372C33.4257 50.3878 32.8007 52.0937 32.0666 53.7624C31.3324 55.4347 30.5267 56.973 29.6569 58.3884L29.6532 58.3921Z" fill="white"/>
<path d="M75.9327 56.5664C74.3439 58.6485 72.8755 60.4848 71.5239 62.0752C70.7935 62.9356 70.0442 63.7811 69.2799 64.6118C68.6324 65.3194 67.9697 66.016 67.2958 66.6976C65.5074 68.5413 63.8922 69.8785 62.4427 70.7016C60.9932 71.5285 59.8524 71.9382 59.0203 71.9382C58.5836 71.9382 58.2673 71.8116 58.0678 71.5546C57.8682 71.2976 57.7703 70.9586 57.7703 70.5228C57.7703 69.7779 58.1769 68.5785 58.9902 66.9285C59.8034 65.2785 60.8765 63.3454 62.2055 61.1255C63.5345 58.9055 65.0556 56.4919 66.7612 53.8772C68.4667 51.2662 70.2061 48.6254 71.9719 45.9548C73.124 44.208 74.2648 42.4834 75.383 40.7812H69.2046L60.9819 54.1417C60.067 51.6275 58.2824 50.3723 55.6205 50.3723C53.6778 50.3723 51.7124 50.8453 49.7283 51.7877C47.7403 52.73 45.9369 53.9666 44.3104 55.5012C43.1696 56.5739 42.1757 57.7509 41.3285 59.0247C41.1102 59.3488 40.9031 59.6803 40.7073 60.0155C40.5718 60.2464 40.4438 60.4774 40.3195 60.712C39.2879 62.6563 38.7721 64.6118 38.7721 66.5747C38.7721 67.3606 38.8587 68.1167 39.0394 68.843C39.2164 69.5693 39.5138 70.2174 39.9317 70.7873C40.3496 71.3571 40.8843 71.8078 41.5394 72.1431C42.1907 72.4783 42.9964 72.6459 43.949 72.6459C45.8541 72.6459 47.5408 72.2138 49.0091 71.3497C50.4775 70.4856 51.8291 69.4278 53.0603 68.1688L53.1808 68.288C53.0603 68.7983 53.0415 69.3272 53.1205 69.8784C53.1996 70.4297 53.4067 70.94 53.7455 71.4093C54.0806 71.8786 54.5399 72.2622 55.116 72.5602C55.692 72.8545 56.4337 72.9997 57.3486 72.9997C59.3328 72.9997 61.1965 72.4112 62.9434 71.2305C64.6904 70.0535 66.5164 68.4817 68.4215 66.5188C68.6775 66.2506 68.9373 65.9787 69.1971 65.6994C69.6979 65.1593 70.2024 64.5969 70.7144 64.0158C71.49 63.1331 72.2355 62.2578 72.9471 61.3936C73.6624 60.5295 74.3251 59.7063 74.9425 58.9204C75.56 58.1345 76.0833 57.4492 76.5201 56.857L75.9252 56.5627L75.9327 56.5664ZM55.1198 64.4888C53.9865 66.1985 52.7365 67.6511 51.366 68.8467C49.9956 70.0461 48.6778 70.6457 47.4053 70.6457C46.3322 70.6457 45.5792 70.2733 45.1425 69.5246C44.7057 68.7797 44.4874 67.9342 44.4874 66.9918C44.4874 65.5392 44.8451 63.8892 45.5604 62.0417C46.2758 60.198 47.1869 58.4698 48.3013 56.857C49.412 55.2479 50.6319 53.881 51.9647 52.7635C53.2937 51.6424 54.5738 51.0837 55.805 51.0837C56.7199 51.0837 57.4729 51.3482 58.0678 51.8771C58.6626 52.406 58.9601 53.244 58.9601 54.3801C58.9601 55.7172 58.6024 57.3077 57.887 59.1514C57.1717 60.9951 56.2493 62.7755 55.1198 64.4814V64.4888Z" fill="white"/>
<path d="M100.458 56.2128C99.3848 57.5872 98.1349 59.0696 96.7042 60.6601C95.8081 61.662 94.8857 62.6341 93.9406 63.5765C93.3834 64.1352 92.8149 64.6864 92.2426 65.2265C90.217 67.1112 88.2028 68.5452 86.1998 69.5285C84.193 70.5118 82.3595 71.0035 80.6916 71.0035C79.0237 71.0035 77.6532 70.4746 76.7007 69.4131C75.7481 68.3515 75.27 66.9808 75.27 65.2898C75.27 64.6604 75.3679 63.9564 75.5674 63.1705C76.2828 63.0141 77.1939 62.8166 78.3083 62.582C79.419 62.3473 80.6087 62.0531 81.8813 61.6992C83.1501 61.3454 84.4302 60.932 85.7216 60.4627C87.013 59.9896 88.1726 59.4421 89.208 58.8126C90.2396 58.1869 91.083 57.4792 91.7381 56.6933C92.3932 55.9074 92.7208 55.0432 92.7208 54.1009C92.7208 52.9239 92.2464 52.0113 91.2901 51.3633C90.3375 50.7152 89.0085 50.3911 87.2992 50.3911C85.4355 50.3911 83.4589 50.8455 81.373 51.7469C79.2872 52.652 77.3746 53.829 75.6276 55.2816C73.8807 56.7342 72.4312 58.3843 71.2791 60.2317C70.3755 61.6843 69.8258 63.1481 69.6337 64.6268C69.5848 64.9881 69.5585 65.3532 69.5547 65.7144C69.5547 65.7517 69.5547 65.7889 69.5547 65.8299C69.5547 67.9493 70.2098 69.6812 71.52 71.0147C72.8302 72.3481 74.6186 73.0185 76.8814 73.0185C79.1442 73.0185 81.4785 72.5567 83.9973 71.633C86.516 70.713 89.1478 69.0331 91.8887 66.5972C92.2727 66.2471 92.6492 65.897 93.0144 65.5543C94.4903 64.165 95.793 62.8241 96.9225 61.5316C98.3306 59.9226 99.6522 58.2912 100.883 56.6411L100.465 56.2277L100.458 56.2128ZM79.8821 55.3561C80.8949 54.1605 81.9754 53.1474 83.1275 52.3205C84.2796 51.4973 85.3527 51.0839 86.3429 51.0839C86.821 51.0839 87.205 51.2031 87.5062 51.4378C87.8037 51.6724 87.9505 52.0672 87.9505 52.6147C87.9505 53.5571 87.6117 54.5479 86.9377 55.587C86.2638 56.63 85.3602 57.6095 84.2307 58.5333C83.0974 59.457 81.7985 60.2839 80.3301 61.0065C78.8618 61.7328 77.3144 62.2542 75.6841 62.5671C75.9213 61.5875 76.4296 60.4366 77.2014 59.1218C77.977 57.807 78.8693 56.548 79.8821 55.3524V55.3561Z" fill="white"/>
<path d="M116.237 56.3889C114.927 58.1171 113.519 59.823 112.009 61.514C110.785 62.881 109.641 64.1064 108.575 65.194C108.327 65.4473 108.082 65.6968 107.841 65.9315C105.977 67.697 104.227 69.0826 102.6 70.0845C100.974 71.0864 99.6635 71.5855 98.6696 71.5855C98.1538 71.5855 97.7547 71.4291 97.4798 71.1162C97.2012 70.7996 97.0619 70.3899 97.0619 69.8796C97.0619 69.2911 97.2313 68.6058 97.5702 67.8162C97.9053 67.0303 98.4437 65.9799 99.1778 64.6651C99.912 63.3503 100.895 61.7002 102.126 59.715C103.357 57.7335 104.863 55.2863 106.651 52.3811H114.332L114.867 51.3196H107.307L112.246 43.6616L105.816 43.8963L101.35 51.3196H96.7645L96.3466 52.3811H100.812C99.6221 54.4222 98.5077 56.2324 97.4761 57.8005C96.4444 59.3723 95.5408 60.8063 94.769 62.1025C94.4678 62.6091 94.1892 63.1007 93.937 63.5775C93.5717 64.2666 93.2593 64.9184 93.0032 65.5404C92.9844 65.5814 92.9693 65.6261 92.9505 65.6708C92.5138 66.7509 92.2954 67.8013 92.2954 68.8218C92.2954 70.2372 92.7736 71.228 93.7261 71.7978C94.6787 72.3677 95.7893 72.6508 97.0619 72.6508C97.9768 72.6508 98.9068 72.4757 99.8593 72.1219C100.812 71.7681 101.787 71.2876 102.777 70.6804C103.767 70.0733 104.75 69.3656 105.725 68.5611C106.527 67.8944 107.314 67.1941 108.075 66.4604C108.236 66.3077 108.395 66.1512 108.553 65.9948C110.221 64.3448 111.749 62.6761 113.138 60.9888C114.528 59.3016 115.68 57.8675 116.591 56.6868L116.233 56.3926L116.237 56.3889Z" fill="white"/>
<path d="M144.821 56.1536C144.422 56.6639 143.929 57.2822 143.33 58.0085C142.735 58.7348 142.073 59.5319 141.335 60.3923C140.6 61.2564 139.806 62.1504 138.951 63.0741C138.338 63.7371 137.716 64.3964 137.095 65.0519C136.851 65.3089 136.606 65.5622 136.361 65.8155C135.646 66.5231 134.893 67.2308 134.098 67.9348C133.304 68.6425 132.528 69.2608 131.775 69.7897C131.022 70.3186 130.303 70.7544 129.629 71.0859C128.955 71.4211 128.379 71.5887 127.901 71.5887C127.148 71.5887 126.772 71.1566 126.772 70.2925C126.772 69.4284 127.039 68.4265 127.574 67.2867C128.108 66.1507 128.854 64.8023 129.806 63.2529C130.759 61.6997 131.9 59.9267 133.229 57.9229C134.558 55.919 135.996 53.6432 137.547 51.0918L131.414 51.5648L126.293 59.8113C125.379 61.3049 124.358 62.7351 123.229 64.1133C122.095 65.4877 120.955 66.7057 119.806 67.7672C118.654 68.8287 117.551 69.6742 116.501 70.3C115.446 70.9294 114.543 71.2423 113.79 71.2423C113.353 71.2423 113.007 71.0859 112.747 70.773C112.487 70.4601 112.359 70.0653 112.359 69.596C112.359 68.1024 113.342 65.8341 115.307 62.791C117.272 59.748 119.821 55.8482 122.958 51.0955L116.644 51.3302C113.865 55.8445 111.663 59.517 110.032 62.3441C109.434 63.387 108.941 64.3368 108.564 65.2009C108.368 65.6441 108.203 66.0687 108.067 66.4636C107.751 67.3798 107.593 68.1695 107.593 68.8287C107.593 69.8493 107.913 70.7432 108.545 71.5105C109.181 72.2741 110.115 72.6577 111.346 72.6577C112.578 72.6577 113.797 72.423 114.889 71.95C115.981 71.477 117.001 70.8885 117.954 70.1808C118.907 69.4731 119.799 68.6984 120.635 67.8529C121.467 67.0111 122.242 66.214 122.958 65.4691L123.078 65.5882C122.879 65.9048 122.709 66.3555 122.57 66.944C122.431 67.5325 122.359 68.203 122.359 68.9479C122.359 70.0094 122.717 70.8922 123.432 71.5999C124.147 72.3076 125.1 72.6614 126.29 72.6614C127.958 72.6614 129.644 72.0915 131.35 70.9518C132.66 70.0802 134.064 68.9405 135.559 67.5325C136.015 67.1079 136.478 66.6572 136.948 66.1805C138.616 64.4932 140.183 62.7724 141.655 61.0255C143.123 59.2786 144.335 57.7739 145.288 56.5187L144.814 56.1648L144.821 56.1536Z" fill="white"/>
<path d="M172.806 56.5039C172.091 57.368 171.018 58.6567 169.591 60.3626C168.563 61.5918 167.46 62.847 166.289 64.1283C165.837 64.6274 165.367 65.1302 164.888 65.6368C162.705 67.9126 160.969 69.4732 159.678 70.3187C158.386 71.1642 157.464 71.5851 156.91 71.5851C156.357 71.5851 155.958 71.4398 155.721 71.1456C155.483 70.8513 155.363 70.4677 155.363 69.9947C155.363 68.8959 155.788 67.7077 156.643 66.4301C157.494 65.1526 158.439 63.8191 159.471 62.4224C160.502 61.0294 161.447 59.6363 162.302 58.2396C163.153 56.8465 163.582 55.4796 163.582 54.1424C163.582 53.0809 163.243 52.1907 162.569 51.4644C161.892 50.7381 160.901 50.373 159.591 50.373C158.044 50.373 156.496 50.8461 154.945 51.7884C153.398 52.7308 151.948 53.8295 150.597 55.0885C149.249 56.3474 148.044 57.6213 146.993 58.9175C145.943 60.2136 145.137 61.2156 144.58 61.9233L144.463 61.8041L152.204 51.0845L145.416 51.3191C143.353 54.8911 141.256 58.3774 139.132 61.7743C138.451 62.8619 137.773 63.9532 137.095 65.0483C136.583 65.8677 136.075 66.6909 135.57 67.5177C134.64 69.0262 133.714 70.5385 132.788 72.0544L138.805 71.8756C139.32 70.896 140.017 69.7153 140.887 68.3409C141.76 66.9665 142.743 65.5437 143.835 64.0687C144.926 62.5974 146.086 61.1262 147.317 59.6512C148.548 58.1762 149.761 56.8614 150.95 55.7031C152.14 54.5447 153.273 53.6023 154.346 52.876C155.419 52.1497 156.349 51.7847 157.144 51.7847C157.701 51.7847 158.115 51.9225 158.394 52.1981C158.672 52.4738 158.812 52.8276 158.812 53.2597C158.812 54.1648 158.383 55.2226 157.532 56.4405C156.677 57.6585 155.736 58.9435 154.7 60.2993C153.669 61.6551 152.724 63.037 151.873 64.4523C151.018 65.8677 150.593 67.2421 150.593 68.5756C150.593 69.6371 150.95 70.5794 151.666 71.4026C152.381 72.2257 153.492 72.6392 155.002 72.6392C156.511 72.6392 158.047 72.1885 159.497 71.2834C160.947 70.3783 162.701 68.8475 164.768 66.6871C165.216 66.2216 165.657 65.756 166.093 65.2904C167.313 63.9793 168.48 62.657 169.591 61.3236C171.101 59.5171 172.37 58.0049 173.401 56.7907L172.806 56.4964V56.5039Z" fill="white"/>
<path d="M203.175 56.5665C201.586 58.6486 200.118 60.4848 198.766 62.0753C198.036 62.9357 197.29 63.7812 196.526 64.6081C195.878 65.3158 195.212 66.0123 194.538 66.6976C192.753 68.5413 191.134 69.8785 189.685 70.7016C188.235 71.5285 187.094 71.9382 186.262 71.9382C185.826 71.9382 185.509 71.8116 185.31 71.5546C185.11 71.2976 185.012 70.9586 185.012 70.5229C185.012 69.7779 185.419 68.5786 186.232 66.9285C187.046 65.2785 188.119 63.3454 189.448 61.1255C190.777 58.9056 192.294 56.492 194.003 53.8773C195.709 51.2663 197.448 48.6255 199.214 45.9549C200.366 44.208 201.507 42.4835 202.625 40.7813H196.451L188.224 54.1417C187.309 51.6276 185.524 50.3723 182.866 50.3723C180.92 50.3723 178.955 50.8454 176.97 51.7877C174.986 52.7301 173.179 53.9667 171.553 55.5012C169.922 57.0321 168.593 58.7715 167.562 60.7158C166.959 61.8481 166.53 62.9878 166.282 64.1276C166.195 64.5187 166.127 64.9098 166.086 65.3009C166.037 65.7255 166.01 66.1538 166.01 66.5784C166.01 67.3643 166.101 68.1204 166.278 68.8467C166.455 69.5731 166.752 70.2212 167.17 70.791C167.588 71.3609 168.123 71.8116 168.778 72.1468C169.433 72.482 170.235 72.6496 171.187 72.6496C173.092 72.6496 174.779 72.2176 176.251 71.3535C177.72 70.4893 179.067 69.4315 180.299 68.1726L180.419 68.2918C180.299 68.8021 180.28 69.331 180.359 69.8822C180.438 70.4335 180.645 70.9437 180.984 71.4131C181.323 71.8824 181.778 72.266 182.354 72.564C182.93 72.8582 183.676 73.0035 184.587 73.0035C186.571 73.0035 188.439 72.415 190.182 71.2343C191.929 70.0573 193.755 68.4855 195.66 66.5225C195.92 66.2544 196.176 65.9825 196.435 65.6994C196.936 65.1593 197.441 64.6006 197.953 64.0196C198.728 63.1368 199.474 62.2615 200.185 61.3974C200.901 60.5333 201.563 59.7101 202.181 58.9242C202.798 58.1383 203.322 57.453 203.758 56.8607L203.164 56.5665H203.175ZM182.362 64.4889C181.229 66.1985 179.979 67.6511 178.608 68.8467C177.238 70.0461 175.92 70.6458 174.647 70.6458C173.574 70.6458 172.821 70.2733 172.385 69.5246C171.948 68.7797 171.729 67.9342 171.729 66.9919C171.729 65.5392 172.087 63.8892 172.803 62.0418C173.518 60.198 174.433 58.4698 175.543 56.857C176.654 55.2479 177.878 53.881 179.207 52.7636C180.536 51.6425 181.816 51.0837 183.047 51.0837C183.962 51.0837 184.715 51.3482 185.31 51.8771C185.905 52.406 186.202 53.2441 186.202 54.3801C186.202 55.7173 185.844 57.3077 185.129 59.1514C184.414 60.9951 183.491 62.7755 182.362 64.4814V64.4889ZM202.222 31.41L201.507 32.5721C202.655 32.3412 203.837 32.0059 205.054 31.559C205.34 31.4547 205.626 31.3392 205.916 31.2163L202.222 31.41Z" fill="white"/>
<path d="M227.35 56.2128C226.277 57.5872 225.031 59.0696 223.6 60.6601C222.169 62.2505 220.682 63.7739 219.135 65.2265C217.109 67.1112 215.095 68.5452 213.092 69.5285C211.089 70.5118 209.252 71.0035 207.584 71.0035C205.916 71.0035 204.545 70.4746 203.593 69.4131C202.64 68.3515 202.162 66.9808 202.162 65.2898C202.162 64.6604 202.264 63.9564 202.46 63.1705C203.175 63.0141 204.09 62.8166 205.2 62.582C206.311 62.3473 207.501 62.0531 208.773 61.6992C210.046 61.3454 211.326 60.932 212.617 60.4627C213.905 59.9896 215.069 59.4421 216.1 58.8126C217.132 58.1869 217.975 57.4792 218.63 56.6933C219.285 55.9074 219.613 55.0432 219.613 54.1009C219.613 52.9239 219.135 52.0113 218.182 51.3633C217.23 50.7152 215.897 50.3911 214.191 50.3911C212.328 50.3911 210.351 50.8455 208.265 51.7469C206.183 52.652 204.267 53.829 202.52 55.2816C200.773 56.7342 199.323 58.3843 198.171 60.2317C197.268 61.6843 196.718 63.1444 196.526 64.6194C196.477 64.9844 196.451 65.3457 196.447 65.7107C196.447 65.748 196.447 65.7889 196.447 65.8262C196.447 67.9455 197.102 69.6775 198.412 71.0109C199.722 72.3444 201.507 73.0148 203.77 73.0148C206.032 73.0148 208.367 72.553 210.886 71.6292C213.404 70.7092 216.036 69.0294 218.777 66.5935C220.724 64.8242 222.399 63.137 223.811 61.5279C225.219 59.9188 226.54 58.2874 227.772 56.6374L227.354 56.224L227.35 56.2128ZM206.778 55.3561C207.791 54.1605 208.871 53.1474 210.023 52.3205C211.172 51.4973 212.249 51.0839 213.239 51.0839C213.717 51.0839 214.105 51.2031 214.402 51.4378C214.7 51.6724 214.846 52.0672 214.846 52.6147C214.846 53.5571 214.511 54.5479 213.834 55.587C213.156 56.63 212.256 57.6095 211.123 58.5333C209.993 59.457 208.691 60.2839 207.222 61.0065C205.75 61.7328 204.203 62.2542 202.576 62.5671C202.813 61.5875 203.322 60.4366 204.097 59.1218C204.873 57.807 205.761 56.548 206.778 55.3524V55.3561Z" fill="white"/>
</g>
<defs>
<clipPath id="clip0_93_1701">
<rect width="235.686" height="73" fill="white"/>
</clipPath>
</defs>
</svg>
