<svg width="291" height="208" viewBox="0 0 291 208" fill="none" xmlns="http://www.w3.org/2000/svg">
<g clip-path="url(#clip0_108_2283)">
<rect width="291" height="208" rx="10" fill="#E7D1FF"/>
<path d="M416.267 152.947C412.731 156.189 408.447 159.407 403.414 162.649C398.381 165.892 392.858 168.854 386.896 171.535C386.354 171.79 385.786 172.02 385.244 172.275C379.772 174.624 374.12 176.539 368.338 177.995C361.938 179.603 355.485 180.421 348.955 180.421C343.509 180.421 338.27 180.165 333.237 179.603C328.204 179.067 323.378 177.714 318.758 175.569C325.571 166.428 332.359 156.138 339.173 144.674C345.961 133.235 352.104 121.387 357.55 109.131C362.996 96.9009 367.409 84.364 370.816 71.5718C374.223 58.7796 375.926 46.4725 375.926 34.625C375.926 15.7814 372.029 0.282587 364.286 -11.8202C356.517 -23.9486 344.49 -30 328.152 -30C321.623 -30 314.757 -28.9021 307.53 -26.7573C300.329 -24.5869 292.354 -19.4802 283.631 -11.4117C268.377 -10.0584 253.227 -6.02415 238.128 0.716665C223.029 7.43194 208.653 15.9346 195.051 26.1479C181.449 36.3868 168.803 48.1577 157.085 61.4861C145.393 74.8145 135.25 88.8068 126.681 103.488C118.112 118.17 111.427 133.311 106.678 148.912C101.929 164.513 99.5548 179.731 99.5548 194.541C99.5548 204.243 100.716 213.461 103.013 222.193C105.336 230.951 109.285 238.739 114.86 245.607C120.435 252.476 127.791 257.914 136.902 261.949C146.013 265.983 157.369 268 170.996 268C185.682 268 199.826 265.447 213.454 260.314C227.055 255.208 239.909 248.467 252.013 240.143C264.144 231.794 275.475 222.295 286.108 211.673C296.716 201.026 306.369 190.327 315.093 179.578C325.417 183.357 337.005 185.221 349.807 185.221C359.821 185.221 370.248 183.153 381.037 179.016C382.25 178.557 383.489 178.071 384.702 177.535C396.807 172.429 408.163 165.152 418.797 155.73L416.345 152.896L416.267 152.947ZM279.32 201.613C271.01 211.98 261.615 221.478 251.136 230.083C240.657 238.713 229.559 245.914 217.867 251.71C206.149 257.48 194.303 260.391 182.353 260.391C174.455 260.391 167.873 258.655 162.557 255.157C157.266 251.659 153.033 247.012 149.91 241.216C146.787 235.445 144.541 228.755 143.173 221.223C141.806 213.665 141.134 205.877 141.134 197.783C141.134 185.144 142.631 171.739 145.625 157.594C148.619 143.474 152.904 129.277 158.479 115.004C164.054 100.731 170.842 86.8662 178.894 73.4102C186.921 59.9541 196.032 47.7747 206.253 36.8719C216.448 25.9692 227.546 16.7006 239.522 9.01501C251.497 1.32947 264.273 -3.82829 277.875 -6.53482L278.701 -5.7433C268.093 5.56799 259.731 18.5645 253.588 33.2206C247.471 47.9023 244.4 63.0436 244.4 78.6445C244.4 88.3472 245.69 97.8201 248.271 107.114C250.852 116.408 254.543 125.141 259.292 133.363C264.041 141.584 269.822 148.989 276.636 155.577C283.424 162.19 291.064 167.756 299.504 172.352C294.342 181.493 287.605 191.272 279.294 201.639L279.32 201.613ZM302.781 167.884C294.626 163.313 287.863 157.236 282.572 149.704C277.255 142.146 272.997 133.873 269.719 124.86C266.441 115.847 264.144 106.476 262.776 96.7732C261.434 87.0705 260.737 77.8019 260.737 68.9163C260.737 62.7117 261.202 56.073 262.183 48.9237C263.137 41.7999 264.634 34.7782 266.673 27.9097C268.712 21.0412 271.216 14.5813 274.21 8.52987C277.204 2.47846 280.74 -2.70482 284.818 -7.01996C290.806 -7.2753 295.761 -6.66249 299.71 -5.18156C303.659 -3.70062 306.859 -1.68348 309.311 0.869858C311.763 3.42319 313.518 6.51273 314.628 10.164C315.712 13.7897 316.254 17.5176 316.254 21.271C316.254 23.6967 316.099 26.3777 315.841 29.3396C315.583 32.3014 315.17 34.5994 314.628 36.208L319.119 36.6166C319.661 34.4718 320.126 32.2504 320.539 29.9524C320.952 27.6544 321.158 24.8968 321.158 21.654C321.158 17.6198 320.616 13.5855 319.532 9.55121C318.448 5.51694 316.667 1.94226 314.215 -1.14728C311.763 -4.23682 308.511 -6.71354 304.407 -8.57748C300.329 -10.4414 295.297 -11.5138 289.309 -11.7692C292.019 -14.348 295.142 -16.4418 298.703 -17.9993C302.239 -19.5568 306.472 -20.3484 311.35 -20.3484C317.338 -20.3484 322.371 -19.0462 326.449 -16.4162C330.527 -13.8118 333.805 -10.1606 336.257 -5.51348C338.709 -0.866411 340.464 4.5722 341.574 10.7513C342.658 16.9559 343.2 23.5435 343.2 30.5396C343.2 41.5956 342.245 53.0856 340.335 65.0608C338.425 77.0359 335.715 89.0366 332.179 101.012C328.643 113.012 324.358 124.707 319.326 136.146C314.293 147.61 308.769 158.155 302.807 167.858L302.781 167.884Z" fill="#9546E8"/>
<path d="M189.337 -20.7059C186.214 -23.3869 181 -24.8933 173.619 -25.1231C168.147 -25.404 160.894 -25.8381 151.783 -26.3743C142.647 -26.9105 132.581 -27.4467 121.586 -27.9829C110.565 -28.5191 98.8475 -28.9787 86.4846 -29.3872C74.0701 -29.7957 61.9136 -30 49.9637 -30C37.1362 -30 21.7793 -29.3361 3.84151 -27.9829C-14.1479 -26.6296 -32.8859 -24.3316 -52.5013 -21.1144C-72.1168 -17.8972 -91.6032 -13.4544 -111.09 -7.78596C-130.524 -2.14309 -147.972 5.00626 -163.329 13.611C-178.737 22.2413 -191.178 32.5312 -200.676 44.4809C-210.199 56.456 -215 70.4228 -215 86.3045C-215 96.2625 -213.09 104.918 -209.27 112.349C-205.476 119.753 -200.495 125.881 -194.378 130.733C-188.235 135.558 -181.189 139.184 -173.136 141.61C-165.135 144.061 -157.031 145.261 -148.849 145.261C-134.706 145.261 -121.181 142.835 -108.251 137.984C-95.3198 133.158 -83.9635 126.673 -74.1558 118.63C-64.3481 110.536 -56.5535 101.19 -50.6946 90.5431C-44.8358 79.8956 -41.9193 68.7886 -41.9193 57.222C-41.9193 53.4686 -41.9967 49.7663 -42.1258 46.115C-42.2548 42.4893 -42.7452 38.7869 -43.5453 35.008L-48.0621 35.4165C-47.2361 41.3658 -46.849 47.2895 -46.849 53.2133C-46.849 65.597 -49.8945 76.4997 -56.0115 85.9215C-62.1542 95.3433 -70.052 103.08 -79.6791 109.131C-89.3578 115.183 -99.9656 119.779 -111.528 122.868C-123.091 125.958 -134.318 127.49 -145.21 127.49C-152.54 127.49 -160.025 126.545 -167.639 124.681C-175.279 122.792 -182.222 120.06 -188.468 116.383C-194.739 112.757 -199.901 108.136 -204.005 102.467C-208.083 96.8243 -210.122 90.3388 -210.122 83.1129C-210.122 72.0824 -206.999 62.3032 -200.727 53.8261C-194.481 45.3745 -185.835 37.9443 -174.814 31.612C-163.793 25.3053 -150.992 19.8922 -136.461 15.4749C-121.904 11.0066 -106.341 7.53406 -89.7191 4.98072C-73.1234 2.42739 -55.9599 0.512383 -38.306 -0.687685C-20.6262 -1.86222 -3.33363 -2.50055 13.5202 -2.50055C20.0759 -2.50055 27.122 -2.42395 34.7617 -2.29629C42.4014 -2.11755 49.783 -1.93882 57.0098 -1.68349C64.2365 -1.42815 70.8954 -1.04515 77.0124 -0.687685C83.1551 -0.279152 88.2396 0.205984 92.3176 0.742184V1.55925C74.9218 6.66593 59.9263 12.6663 47.4085 19.5092C34.8907 26.3777 23.6635 34.5484 13.7525 43.9447C3.78992 53.3665 -5.45003 64.3458 -14.0189 76.8572C-22.6136 89.3685 -31.6212 103.846 -41.145 120.289C-49.5848 134.818 -58.3344 150.01 -67.471 165.892C-76.6077 181.799 -86.6735 196.251 -97.6943 209.324C-108.715 222.372 -121.026 233.147 -134.628 241.65C-140.9 245.582 -147.585 248.569 -154.734 250.637L-155.999 257.353C-147.069 256.076 -138.603 254.161 -130.524 251.557C-114.755 246.424 -100.12 239.096 -86.6736 229.547C-73.2008 219.972 -60.683 208.405 -49.1202 194.821C-37.5574 181.238 -26.5883 165.815 -16.2385 148.58C-6.1727 131.907 3.58344 114.927 12.9782 97.7179C22.3472 80.4574 32 64.8565 41.9368 50.8642C51.8736 36.8719 62.3266 25.433 73.3732 16.5218C84.394 7.63619 96.5504 3.19339 109.894 3.19339C116.94 3.19339 124.786 3.47425 133.381 4.01046C141.924 4.54666 151.396 4.82753 161.746 4.82753C172.896 4.82753 181.078 3.34659 186.24 0.41025C191.402 -2.57715 194.008 -6.20289 194.008 -10.4925C194.008 -14.5523 192.408 -17.8972 189.285 -20.6037L189.337 -20.7059Z" fill="#9546E8"/>
</g>
<defs>
<clipPath id="clip0_108_2283">
<rect width="291" height="208" rx="10" fill="white"/>
</clipPath>
</defs>
</svg>
